HIERARCHY
ROOT Hips
{
   OFFSET 0.00000 0.00000 0.00000
   CHANNELS 6 Xposition Yposition Zposition Zrotation Xrotation Yrotation
   JOINT RightUpLeg
   {
      OFFSET -8.945800 -8.667070 0.101652
      CHANNELS 3 Zrotation Xrotation Yrotation
      JOINT RightLeg
      {
         OFFSET 0.000000 -44.422697 1.372700
         CHANNELS 3 Zrotation Xrotation Yrotation
         JOINT RightFoot
         {
            OFFSET 0.253549 -42.092399 -1.460590
            CHANNELS 3 Zrotation Xrotation Yrotation
            JOINT RightToes
            {
               OFFSET 0.040000 -4.415090 8.499099
               CHANNELS 3 Zrotation Xrotation Yrotation
               End Site
               {
                  OFFSET -0.080000 -0.137448 9.779790
               }
            }
         }
      }
   }
   JOINT Spine
   {
      OFFSET 0.000000 11.890501 0.000000
      CHANNELS 3 Zrotation Xrotation Yrotation
      JOINT Spine1
      {
         OFFSET 0.000000 25.657401 0.127663
         CHANNELS 3 Zrotation Xrotation Yrotation
         JOINT HEad
         {
            OFFSET 0.000000 8.734161 0.011341
            CHANNELS 3 Zrotation Xrotation Yrotation
            End Site
            {
               OFFSET -0.290000 12.774200 2.513950
            }
         }
         JOINT LeftShoulder1
         {
            OFFSET 8.990000 -0.362252 -0.220000
            CHANNELS 3 Zrotation Xrotation Yrotation
            JOINT LeftArm
            {
               OFFSET 10.282700 -0.003380 0.322123
               CHANNELS 3 Zrotation Xrotation Yrotation
               JOINT LeftForeArm
               {
                  OFFSET 32.766900 0.099144 -1.424340
                  CHANNELS 3 Zrotation Xrotation Yrotation
                  JOINT LeftHand
                  {
                     OFFSET 27.564301 0.085362 1.022160
                     CHANNELS 3 Zrotation Xrotation Yrotation
                     End Site
                     {
                        OFFSET 16.744301 -0.600000 1.502910
                     }
                  }
               }
            }
         }
         JOINT RightShoulder
         {
            OFFSET -8.990000 -0.362252 -0.220000
            CHANNELS 3 Zrotation Xrotation Yrotation
            JOINT RightArm
            {
               OFFSET -10.282700 -0.003380 0.322123
               CHANNELS 3 Zrotation Xrotation Yrotation
               JOINT RightForeArm
               {
                  OFFSET -32.897098 0.099144 -1.424340
                  CHANNELS 3 Zrotation Xrotation Yrotation
                  JOINT RightHand
                  {
                     OFFSET -27.492101 0.085362 1.022160
                     CHANNELS 3 Zrotation Xrotation Yrotation
                     End Site
                     {
                        OFFSET -16.631201 -0.600000 1.502910
                     }
                  }
               }
            }
         }
      }
   }
   JOINT LeftUpLeg
   {
      OFFSET 8.945800 -8.667070 0.101652
      CHANNELS 3 Zrotation Xrotation Yrotation
      JOINT LeftLeg
      {
         OFFSET 0.000000 -44.422697 1.372700
         CHANNELS 3 Zrotation Xrotation Yrotation
         JOINT LeftFoot
         {
            OFFSET -0.253549 -42.092399 -1.460590
            CHANNELS 3 Zrotation Xrotation Yrotation
            JOINT LeftToes
            {
               OFFSET -0.040000 -4.415090 8.499099
               CHANNELS 3 Zrotation Xrotation Yrotation
               End Site
               {
                  OFFSET 0.080000 -0.047448 9.779790
               }
            }
         }
      }
   }
}
MOTION
Frames: 7
Frame Time: 0.016667
-225.016419 97.712477 397.793497 54.717192 17.835876 70.932594 -21.604966 27.302696 9.240703 14.852480 18.118161 -20.952572 -35.730318 15.798381 28.156499 6.472991 -9.702787 -40.087938 -54.181838 50.013671 119.615218 14.422025 8.253468 -78.641692 -14.251347 26.458765 -5.359514 -14.424067 127.022421 26.709192 -144.064686 77.024105 -203.551071 -46.307675 54.656417 -20.292060 -45.003263 -14.232531 -53.153864 -69.092671 73.049522 116.742987 102.954617 153.169328 182.132294 64.415220 227.533327 133.991700 -36.972944 -32.160690 24.321545 13.984246 6.746810 78.844767 24.673594 35.039294 -24.803117 -7.965163 28.778548 38.842176 24.720323 -26.593528 -8.398335
-225.240532 97.277325 398.008951 48.803536 14.353170 75.733397 -12.532079 23.243786 6.752223 12.504053 19.312300 -22.232892 -34.069725 15.105431 26.868834 6.529162 -10.013868 -41.025897 -46.489157 50.576034 123.803968 12.568744 4.870504 -85.930125 -15.624198 28.633514 -4.297297 -12.731946 133.579622 30.912753 -142.480396 86.170418 -204.477149 -50.307615 55.310551 -16.803992 -45.945279 -14.579061 -51.406278 -71.865775 79.106452 120.269331 100.277736 155.126874 183.946147 70.908128 222.950816 138.801643 -40.568305 -36.455486 20.002438 18.427164 3.917827 68.199534 18.374052 34.503937 -18.533855 -10.890657 27.733134 34.670371 24.500551 -24.366485 -9.410501
-225.253769 96.723975 398.160890 44.088355 10.194015 81.689151 -4.359424 20.699315 4.528380 10.791838 20.241728 -23.376075 -30.504964 14.536815 26.463857 6.289678 -10.443782 -41.034960 -40.221673 51.415448 129.167920 9.103658 3.788869 -91.740847 -19.596574 32.004224 -2.562681 -7.185150 139.086448 36.834329 -140.042551 93.033549 -204.863027 -52.966679 55.948938 -13.078807 -45.761813 -15.453207 -46.521440 -76.063534 87.670430 125.194075 96.833340 157.624633 187.274020 76.120361 218.436280 140.369704 -40.379187 -40.371472 13.574149 22.883825 0.575946 57.658538 13.869888 33.816140 -13.028740 -13.891025 25.839026 32.163275 23.805668 -21.782208 -9.489920
-225.132824 95.987404 398.350748 41.177097 6.718225 86.650922 1.779134 18.911016 3.672161 8.909535 21.778528 -24.204749 -25.817575 13.800355 26.946730 5.595860 -11.279827 -40.053414 -33.018456 52.604447 132.667778 6.451391 3.025058 -98.110005 -20.925299 35.094120 -1.327716 -3.917764 143.691361 41.643079 -139.744987 98.921862 -203.925311 -54.455148 55.694489 -9.611463 -45.805117 -16.168064 -43.197210 -82.144609 98.251943 131.620532 91.911083 159.070693 192.686016 80.152208 213.715663 143.626720 -42.929313 -44.318669 9.424300 26.519666 -0.945111 47.585979 8.277596 32.930736 -6.969615 -16.501221 23.693863 30.341302 22.984585 -18.926492 -9.260564
-224.766518 95.016249 398.523897 40.080332 3.699635 91.571035 6.301316 18.184709 5.022355 7.297222 24.689715 -24.282740 -20.014276 13.028872 28.848229 4.577419 -12.260310 -37.799076 -24.793588 55.016521 135.338518 5.128265 2.413086 -103.730575 -19.506918 37.214016 -0.669265 -0.463187 146.947203 45.959011 -139.479348 104.920783 -200.849130 -55.865234 54.369098 -6.921615 -46.005258 -16.874754 -41.685010 -90.067628 111.020128 139.736231 86.607673 159.675507 201.348157 82.897480 210.902581 146.730181 -45.324080 -49.417549 6.782651 29.338367 -1.709724 37.131435 3.708495 31.792963 -0.805737 -18.661011 21.398701 29.197156 22.071760 -16.056585 -8.821505
-224.171769 93.912915 398.594545 41.309988 1.625597 95.267861 10.402965 18.764360 4.801404 7.013547 26.319243 -26.228623 -16.574649 12.738754 28.607943 3.965234 -12.745590 -36.174307 -17.071877 55.851126 136.773459 5.452404 2.242440 -110.271259 -16.103740 38.421440 -0.480382 1.228466 150.617583 49.094990 -142.612629 110.876967 -198.798885 -57.978054 52.700999 -5.193898 -46.606848 -17.318525 -41.602433 -97.710139 127.644583 150.269967 80.523388 162.373855 212.879825 85.678678 206.255840 153.201799 -49.218186 -54.133487 5.820295 32.770776 0.096266 26.027687 0.008831 28.943975 4.218055 -31.332912 19.225435 28.484942 21.426384 -13.016834 -8.949486
-223.359677 92.559393 398.492655 41.036664 0.200340 98.614421 13.070381 18.117951 4.030472 7.818777 27.068222 -28.933556 -14.072724 11.684273 27.693868 3.331713 -13.510018 -34.694137 -9.717138 57.693850 137.760981 5.378199 1.502076 -116.157025 -11.067557 39.312093 -0.720730 2.433283 154.193979 51.192835 -147.209114 117.484650 -196.122776 -59.737920 49.875127 -3.473768 -47.066714 -17.815276 -42.870430 -106.858808 144.997430 160.301507 75.482517 164.048180 228.079851 87.407106 205.179115 156.480303 -50.275786 -57.026045 3.085343 34.193081 -0.506461 15.647677 -4.033394 26.012943 9.951309 -26.229161 17.996824 28.210884 20.633074 -10.882762 -9.347336
